<mxfile host="app.diagrams.net" agent="Mozilla/5.0 (Windows NT 10.0; Win64; x64) AppleWebKit/537.36 (KHTML, like Gecko) Chrome/138.0.0.0 Safari/537.36" version="28.0.7">
  <diagram name="Página-1" id="8kmxYvt912fOKoDFVW7i">
    <mxGraphModel dx="1426" dy="777" grid="1" gridSize="10" guides="1" tooltips="1" connect="1" arrows="1" fold="1" page="1" pageScale="1" pageWidth="3300" pageHeight="4681" math="0" shadow="0">
      <root>
        <mxCell id="0" />
        <mxCell id="1" parent="0" />
        <mxCell id="UnGqp3SlV1RpP09wZ1XN-11" value="Cadastro de usuário" style="shape=umlFrame;whiteSpace=wrap;html=1;pointerEvents=0;" vertex="1" parent="1">
          <mxGeometry x="220" y="920" width="740" height="430" as="geometry" />
        </mxCell>
        <mxCell id="UnGqp3SlV1RpP09wZ1XN-12" value="" style="shape=umlLifeline;perimeter=lifelinePerimeter;whiteSpace=wrap;html=1;container=1;dropTarget=0;collapsible=0;recursiveResize=0;outlineConnect=0;portConstraint=eastwest;newEdgeStyle={&quot;curved&quot;:0,&quot;rounded&quot;:0};participant=umlActor;" vertex="1" parent="1">
          <mxGeometry x="320" y="960" width="20" height="360" as="geometry" />
        </mxCell>
        <mxCell id="UnGqp3SlV1RpP09wZ1XN-23" value="" style="html=1;points=[[0,0,0,0,5],[0,1,0,0,-5],[1,0,0,0,5],[1,1,0,0,-5]];perimeter=orthogonalPerimeter;outlineConnect=0;targetShapes=umlLifeline;portConstraint=eastwest;newEdgeStyle={&quot;curved&quot;:0,&quot;rounded&quot;:0};" vertex="1" parent="UnGqp3SlV1RpP09wZ1XN-12">
          <mxGeometry x="5" y="80" width="10" height="250" as="geometry" />
        </mxCell>
        <mxCell id="UnGqp3SlV1RpP09wZ1XN-13" value="Front End" style="shape=umlLifeline;perimeter=lifelinePerimeter;whiteSpace=wrap;html=1;container=1;dropTarget=0;collapsible=0;recursiveResize=0;outlineConnect=0;portConstraint=eastwest;newEdgeStyle={&quot;curved&quot;:0,&quot;rounded&quot;:0};" vertex="1" parent="1">
          <mxGeometry x="520" y="960" width="100" height="360" as="geometry" />
        </mxCell>
        <mxCell id="UnGqp3SlV1RpP09wZ1XN-16" value="" style="html=1;points=[[0,0,0,0,5],[0,1,0,0,-5],[1,0,0,0,5],[1,1,0,0,-5]];perimeter=orthogonalPerimeter;outlineConnect=0;targetShapes=umlLifeline;portConstraint=eastwest;newEdgeStyle={&quot;curved&quot;:0,&quot;rounded&quot;:0};" vertex="1" parent="UnGqp3SlV1RpP09wZ1XN-13">
          <mxGeometry x="45" y="80" width="10" height="80" as="geometry" />
        </mxCell>
        <mxCell id="UnGqp3SlV1RpP09wZ1XN-24" value="" style="html=1;points=[[0,0,0,0,5],[0,1,0,0,-5],[1,0,0,0,5],[1,1,0,0,-5]];perimeter=orthogonalPerimeter;outlineConnect=0;targetShapes=umlLifeline;portConstraint=eastwest;newEdgeStyle={&quot;curved&quot;:0,&quot;rounded&quot;:0};" vertex="1" parent="UnGqp3SlV1RpP09wZ1XN-13">
          <mxGeometry x="45" y="190" width="10" height="130" as="geometry" />
        </mxCell>
        <mxCell id="UnGqp3SlV1RpP09wZ1XN-14" value="Back End" style="shape=umlLifeline;perimeter=lifelinePerimeter;whiteSpace=wrap;html=1;container=1;dropTarget=0;collapsible=0;recursiveResize=0;outlineConnect=0;portConstraint=eastwest;newEdgeStyle={&quot;curved&quot;:0,&quot;rounded&quot;:0};" vertex="1" parent="1">
          <mxGeometry x="760" y="960" width="100" height="360" as="geometry" />
        </mxCell>
        <mxCell id="UnGqp3SlV1RpP09wZ1XN-36" style="edgeStyle=orthogonalEdgeStyle;rounded=0;orthogonalLoop=1;jettySize=auto;html=1;curved=0;exitX=0;exitY=0;exitDx=0;exitDy=5;exitPerimeter=0;" edge="1" parent="UnGqp3SlV1RpP09wZ1XN-14" source="UnGqp3SlV1RpP09wZ1XN-28">
          <mxGeometry relative="1" as="geometry">
            <mxPoint x="45.333333333333485" y="204.66666666666674" as="targetPoint" />
          </mxGeometry>
        </mxCell>
        <mxCell id="UnGqp3SlV1RpP09wZ1XN-28" value="" style="html=1;points=[[0,0,0,0,5],[0,1,0,0,-5],[1,0,0,0,5],[1,1,0,0,-5]];perimeter=orthogonalPerimeter;outlineConnect=0;targetShapes=umlLifeline;portConstraint=eastwest;newEdgeStyle={&quot;curved&quot;:0,&quot;rounded&quot;:0};" vertex="1" parent="UnGqp3SlV1RpP09wZ1XN-14">
          <mxGeometry x="45" y="200" width="10" height="80" as="geometry" />
        </mxCell>
        <mxCell id="UnGqp3SlV1RpP09wZ1XN-34" value="" style="html=1;points=[[0,0,0,0,5],[0,1,0,0,-5],[1,0,0,0,5],[1,1,0,0,-5]];perimeter=orthogonalPerimeter;outlineConnect=0;targetShapes=umlLifeline;portConstraint=eastwest;newEdgeStyle={&quot;curved&quot;:0,&quot;rounded&quot;:0};" vertex="1" parent="UnGqp3SlV1RpP09wZ1XN-14">
          <mxGeometry x="55" y="220" width="10" height="40" as="geometry" />
        </mxCell>
        <mxCell id="UnGqp3SlV1RpP09wZ1XN-35" value="5. Registra usuário" style="html=1;align=left;spacingLeft=2;endArrow=block;rounded=0;edgeStyle=orthogonalEdgeStyle;curved=0;rounded=0;" edge="1" target="UnGqp3SlV1RpP09wZ1XN-34" parent="UnGqp3SlV1RpP09wZ1XN-14">
          <mxGeometry relative="1" as="geometry">
            <mxPoint x="60" y="210" as="sourcePoint" />
            <Array as="points">
              <mxPoint x="90" y="230" />
            </Array>
          </mxGeometry>
        </mxCell>
        <mxCell id="UnGqp3SlV1RpP09wZ1XN-17" value="1.Usuário clica no botão de cadastro" style="html=1;verticalAlign=bottom;endArrow=block;curved=0;rounded=0;entryX=0;entryY=0;entryDx=0;entryDy=5;entryPerimeter=0;" edge="1" target="UnGqp3SlV1RpP09wZ1XN-16" parent="1" source="UnGqp3SlV1RpP09wZ1XN-12">
          <mxGeometry relative="1" as="geometry">
            <mxPoint x="335" y="1045" as="sourcePoint" />
            <mxPoint x="560" y="1045" as="targetPoint" />
          </mxGeometry>
        </mxCell>
        <mxCell id="UnGqp3SlV1RpP09wZ1XN-18" value="2. Exibe formulário de cadastro" style="html=1;verticalAlign=bottom;endArrow=open;dashed=1;endSize=8;curved=0;rounded=0;exitX=0;exitY=1;exitDx=0;exitDy=-5;exitPerimeter=0;" edge="1" source="UnGqp3SlV1RpP09wZ1XN-16" parent="1" target="UnGqp3SlV1RpP09wZ1XN-12">
          <mxGeometry relative="1" as="geometry">
            <mxPoint x="320" y="1115" as="targetPoint" />
            <mxPoint x="560" y="1115" as="sourcePoint" />
          </mxGeometry>
        </mxCell>
        <mxCell id="UnGqp3SlV1RpP09wZ1XN-25" value="3. Insere informações (email e senha)" style="html=1;verticalAlign=bottom;endArrow=block;curved=0;rounded=0;entryX=0;entryY=0;entryDx=0;entryDy=5;entryPerimeter=0;" edge="1" target="UnGqp3SlV1RpP09wZ1XN-24" parent="1" source="UnGqp3SlV1RpP09wZ1XN-12">
          <mxGeometry relative="1" as="geometry">
            <mxPoint x="340" y="1155" as="sourcePoint" />
          </mxGeometry>
        </mxCell>
        <mxCell id="UnGqp3SlV1RpP09wZ1XN-26" value="7. Exibe mensagem de usuário cadastrado" style="html=1;verticalAlign=bottom;endArrow=open;dashed=1;endSize=8;curved=0;rounded=0;exitX=0;exitY=1;exitDx=0;exitDy=-5;exitPerimeter=0;" edge="1" source="UnGqp3SlV1RpP09wZ1XN-24" parent="1" target="UnGqp3SlV1RpP09wZ1XN-23">
          <mxGeometry relative="1" as="geometry">
            <mxPoint x="645" y="1225" as="targetPoint" />
            <mxPoint x="560" y="1225" as="sourcePoint" />
          </mxGeometry>
        </mxCell>
        <mxCell id="UnGqp3SlV1RpP09wZ1XN-29" value="4. Envia as informações" style="html=1;verticalAlign=bottom;endArrow=block;curved=0;rounded=0;entryX=0.5;entryY=0.071;entryDx=0;entryDy=0;entryPerimeter=0;" edge="1" target="UnGqp3SlV1RpP09wZ1XN-28" parent="1" source="UnGqp3SlV1RpP09wZ1XN-24">
          <mxGeometry relative="1" as="geometry">
            <mxPoint x="890" y="1195" as="sourcePoint" />
            <mxPoint x="800" y="1165" as="targetPoint" />
          </mxGeometry>
        </mxCell>
        <mxCell id="UnGqp3SlV1RpP09wZ1XN-30" value="6. Retorna True" style="html=1;verticalAlign=bottom;endArrow=open;dashed=1;endSize=8;curved=0;rounded=0;exitX=0.5;exitY=0.929;exitDx=0;exitDy=0;exitPerimeter=0;" edge="1" source="UnGqp3SlV1RpP09wZ1XN-28" parent="1" target="UnGqp3SlV1RpP09wZ1XN-13">
          <mxGeometry relative="1" as="geometry">
            <mxPoint x="890" y="1265" as="targetPoint" />
            <mxPoint x="800" y="1225" as="sourcePoint" />
          </mxGeometry>
        </mxCell>
        <mxCell id="UnGqp3SlV1RpP09wZ1XN-42" value="Usuário" style="text;strokeColor=none;fillColor=none;spacingLeft=4;spacingRight=4;overflow=hidden;rotatable=0;points=[[0,0.5],[1,0.5]];portConstraint=eastwest;fontSize=12;whiteSpace=wrap;html=1;" vertex="1" parent="1">
          <mxGeometry x="300" y="930" width="70" height="30" as="geometry" />
        </mxCell>
        <mxCell id="UnGqp3SlV1RpP09wZ1XN-43" value="Fluxo principal: Cadastro de Usuário" style="text;strokeColor=none;fillColor=none;spacingLeft=4;spacingRight=4;overflow=hidden;rotatable=0;points=[[0,0.5],[1,0.5]];portConstraint=eastwest;fontSize=24;whiteSpace=wrap;html=1;fontStyle=1" vertex="1" parent="1">
          <mxGeometry x="362.5" y="860" width="467.5" height="30" as="geometry" />
        </mxCell>
      </root>
    </mxGraphModel>
  </diagram>
</mxfile>
